<svg xmlns="http://www.w3.org/2000/svg" xmlns:xlink="http://www.w3.org/1999/xlink" version="1.1" x="0px" y="0px" viewBox="0 0 100 125" enable-background="new 0 0 100 100" xml:space="preserve"><path d="M95.213,81.317c-0.064-0.345-1.633-8.231-11.408-11.432c0.234-2.265,0.497-7.939-1.576-14.768  c-2.254-7.422-7.805-17.528-21.32-25.021c-0.411-1.395-0.355-2.611,0.185-3.609c0.985-1.817,3.249-2.475,3.267-2.481  c0.472-0.13,0.816-0.537,0.865-1.024c0.049-0.487-0.207-0.955-0.645-1.175c-0.112-0.057-11.249-5.508-20.195,3.555  C35.476,25.505,11.945,28.111,6.79,51.14c-0.635,0.922-2.6,4.141-0.812,6.406c0.736,0.932,1.599,1.161,2.195,1.189  c0.045,0.002,0.091,0.003,0.136,0.003c1.499,0,2.754-1.151,3.052-1.448c0.527-0.435,6.738-5.424,13.991-6.065  c2.938,2.824,6.266,4.491,9.672,4.757c0.32,0.025,0.638,0.038,0.954,0.038c2.876,0,5.556-1.023,7.306-2.823  c0.291-0.3,0.402-0.73,0.294-1.133c-0.108-0.403-0.421-0.719-0.822-0.833c-0.034-0.01-2.101-0.616-4.249-2.15  c29.829-3.062,37.697,18.709,38.92,22.864c-5.211,5.424-3.275,14.622-3.187,15.023c0.109,0.496,0.522,0.868,1.027,0.924  c0.044,0.005,0.087,0.007,0.13,0.007c0.457,0,0.879-0.264,1.074-0.685c2.198-4.732,7.073-4.725,7.295-4.743  c0.232,0.014,0.513-0.076,0.722-0.23c2.312-1.701,7.374-0.291,9.128,0.396c0.401,0.156,0.855,0.083,1.187-0.19  C95.133,82.172,95.291,81.74,95.213,81.317z M83.406,80.113c-1.165,0.065-4.582,0.497-7.196,3.28  c-0.12-2.979,0.295-7.444,3.339-10.21c0.319-0.291,0.456-0.732,0.355-1.152c-0.072-0.302-7.606-29.923-43.707-25.053  c-0.521-0.609-1-1.286-1.391-2.053c-0.296-0.583-1.01-0.815-1.592-0.518c-0.583,0.297-0.814,1.01-0.517,1.593  c1.862,3.656,5.166,5.699,7.326,6.704c-1.357,0.722-3.05,1.055-4.813,0.917c-3.97-0.311-7.894-2.943-11.051-7.411  c-0.376-0.534-1.115-0.66-1.65-0.284c-0.534,0.378-0.662,1.117-0.283,1.651c0.377,0.534,0.771,1.031,1.168,1.518  c-7.468,1.287-13.333,6.191-13.601,6.419c-0.031,0.027-0.061,0.055-0.089,0.084c-0.267,0.279-0.986,0.791-1.418,0.77  c-0.068-0.003-0.227-0.01-0.448-0.291c-0.68-0.862,0.407-2.93,1.006-3.739c0.101-0.136,0.172-0.292,0.208-0.457  c2.414-11.128,9.581-18.562,21.302-22.097c8.879-2.677,17.175-1.998,17.257-1.991c0.649,0.056,1.226-0.425,1.283-1.077  c0.056-0.638-0.408-1.195-1.04-1.272c4.964-3.792,10.25-3.218,13.237-2.403c-0.756,0.549-1.522,1.298-2.068,2.294  c-0.562,1.027-0.81,2.161-0.752,3.388c-0.245-0.121-0.472-0.248-0.723-0.367c-0.592-0.282-1.296-0.029-1.579,0.561  c-0.281,0.59-0.029,1.297,0.561,1.578C85.52,44.279,81.52,69.458,81.335,70.523c-0.103,0.599,0.263,1.181,0.848,1.344  c6.176,1.725,8.859,5.467,9.971,7.821C89.724,79.055,85.968,78.496,83.406,80.113z"/><text x="0" y="115" fill="#000000" font-size="5px" font-weight="bold" font-family="'Helvetica Neue', Helvetica, Arial-Unicode, Arial, Sans-serif">Created by Visual Glow</text><text x="0" y="120" fill="#000000" font-size="5px" font-weight="bold" font-family="'Helvetica Neue', Helvetica, Arial-Unicode, Arial, Sans-serif">from the Noun Project</text></svg>