<svg xmlns="http://www.w3.org/2000/svg" xmlns:xlink="http://www.w3.org/1999/xlink" version="1.1" x="0px" y="0px" viewBox="0 0 100 125" enable-background="new 0 0 100 100" xml:space="preserve"><circle fill="#000000" cx="18.765" cy="39.813" r="2.156"/><path fill="#000000" d="M61.1,26.298c1.219-2.463,3.543-3.862,5.143-4.824c1.401-0.843,2.508-1.509,2.305-2.791  c-0.207-1.308-1.607-1.836-4.878-2.594c-2.374-0.551-4.736-0.83-7.021-0.83c-8.046,0-13.557,3.386-16.31,5.614  c-1.502,0.045-3.021,0.182-4.521,0.406C10.997,24.996,8.104,42.215,7.774,45.668c-4.741,4.356-6.444,7.071-5.685,9.038  c0.482,1.25,1.803,1.883,3.927,1.883c4.813,0,13.525-3.146,13.877-3.273c3.438-1.198,6.914-2.076,10.4-2.63  c2.378,2.427,7.208,6.91,10.417,6.91c0.454,0,0.875-0.091,1.251-0.288c1.018-0.532,1.416-1.572,1.529-2.656  c2.287,1.688,3.573,1.965,4.419,1.965c0.365,0,0.706-0.063,1.018-0.18c0.033-0.012,0.066-0.025,0.099-0.039  c0.05-0.021,0.098-0.043,0.146-0.067c0.031-0.015,0.063-0.026,0.094-0.042c0.028-0.017,0.055-0.034,0.083-0.051  c0.004-0.003,0.009-0.006,0.014-0.009c1.237-0.742,1.719-2.339,1.437-5.031c15.027,3.155,25.145,11.524,26.837,13.001  c1.882,6.421-3.265,14.141-3.317,14.219l-1.418,2.096l2.529-0.036c0.264-0.003,6.18-0.117,10.137-2.523  c2.191,1.1,7.202,3.385,11.104,3.443l2.295,0.034L88.289,62.447C84.997,50.22,75.376,34.517,61.1,26.298z M40.743,54.968  c-0.845,0.309-4.01-1.843-7.103-4.713c1.534-0.151,3.068-0.24,4.599-0.265c0.818,0.841,1.658,1.659,2.498,2.419  C41.084,54.47,40.732,54.967,40.743,54.968z M86.15,75.262l-0.344-0.207h-0.756l-0.347,0.279c-1.922,1.4-4.829,2.038-6.883,2.303  c1.648-3.17,4.035-9.143,2.218-14.598l-0.106-0.319l-0.246-0.229c-0.473-0.441-11.62-10.672-29.359-14.073  c-0.333-1.502-0.817-3.234-1.453-5.218l-2.514,0.805c0.762,2.377,1.229,4.193,1.509,5.584l0.041,0.21  c0.679,3.509,0.084,4.171,0.09,4.171c0,0-0.026,0.009-0.091,0.009c-0.249,0-1.363-0.155-4.097-2.442  c-0.034-0.029-0.068-0.059-0.103-0.088c-0.049-0.041-0.099-0.083-0.149-0.125c-0.703-0.605-1.456-1.297-2.24-2.056  c-0.473-0.461-0.976-0.88-1.513-1.435l-0.393-0.32h-0.009c-1.348-1.509-2.736-3.046-4.073-4.665L33.3,44.484  c0.763,0.923,1.633,1.925,2.568,2.975c-5.641,0.318-11.295,1.441-16.86,3.38c-0.086,0.031-8.639,3.115-12.992,3.115  c-0.974,0-1.35-0.163-1.461-0.227c0.009-0.294,0.331-1.883,5.383-6.461l0.425-0.386l0.008-0.575  c0.002-0.186,0.547-18.63,25.837-22.417c1.54-0.23,3.101-0.361,4.642-0.389l0.469-0.009l0.359-0.303  c2.339-1.976,7.393-5.29,14.97-5.29c2.084,0,4.245,0.256,6.425,0.761c0.841,0.195,1.46,0.357,1.914,0.49  c-0.036,0.021-0.071,0.042-0.105,0.063c-2.008,1.208-5.369,3.23-6.697,7.255l-0.346,1.048l0.971,0.524  c14.217,7.702,23.791,23.25,26.972,35.243l0.043,0.159l8.426,14.975C91.594,77.822,88.511,76.499,86.15,75.262z"/><text x="0" y="115" fill="#000000" font-size="5px" font-weight="bold" font-family="'Helvetica Neue', Helvetica, Arial-Unicode, Arial, Sans-serif">Created by Iconic</text><text x="0" y="120" fill="#000000" font-size="5px" font-weight="bold" font-family="'Helvetica Neue', Helvetica, Arial-Unicode, Arial, Sans-serif">from the Noun Project</text></svg>