<svg xmlns="http://www.w3.org/2000/svg" xmlns:xlink="http://www.w3.org/1999/xlink" version="1.1" x="0px" y="0px" viewBox="0 0 100 125" enable-background="new 0 0 100 100" xml:space="preserve"><g><path d="M50.073,37.056c-9.631,0-17.466,10.765-17.466,23.997S40.442,85.05,50.073,85.05S67.54,74.285,67.54,61.053   S59.705,37.056,50.073,37.056z M50.073,82.62c-8.291,0-15.036-9.675-15.036-21.567s6.746-21.567,15.036-21.567   s15.036,9.675,15.036,21.567S58.364,82.62,50.073,82.62z"/><path d="M74.709,35.926c-0.077-0.082-7.675-8.352-9.112-16.447C63.954,10.228,57.9,4.25,50.174,4.25   c-7.949,0-13.858,5.545-15.423,14.472c-1.038,5.927-4.251,11.755-9.822,17.816c-7.338,7.984-7.887,30.825-2.512,38.097   c0.297,0.403,0.81,0.581,1.295,0.451c0.483-0.131,0.837-0.546,0.89-1.044c0.007-0.065,0.348-3.157,1.125-7.012   c0.539,4.812,2.645,10.657,8.498,16.088c0.1,0.09,1.045,0.923,2.656,1.94l-2.489,1.413c-0.853,0.485-1.427,1.322-1.573,2.297   c-0.145,0.956,0.15,1.904,0.806,2.6c2.455,2.609,5.442,3.286,7.882,3.286c1.12,0,2.125-0.143,2.911-0.307   c0.86-0.18,1.614-0.713,2.068-1.461c0.452-0.743,0.577-1.651,0.342-2.489l-0.455-1.635c1.276,0.224,2.619,0.367,4.038,0.367   c1.191,0,2.372-0.111,3.545-0.297l-0.436,1.565c-0.234,0.839-0.109,1.747,0.343,2.49c0.454,0.747,1.208,1.279,2.067,1.459   c0.786,0.164,1.791,0.307,2.911,0.307c2.441,0,5.429-0.677,7.884-3.285c0.655-0.697,0.949-1.645,0.804-2.602   c-0.146-0.974-0.72-1.811-1.573-2.296l-2.414-1.371c0.887-0.562,1.768-1.16,2.637-1.839c0.144-0.115,3.528-2.883,6.01-7.913   c1.202-2.437,2.302-5.666,2.514-9.552c0.68,2.665,1.206,5.701,1.346,8.978c0.024,0.555,0.421,1.024,0.966,1.137   c0.546,0.114,1.096-0.158,1.34-0.657C78.456,75.043,88.548,53.816,74.709,35.926z M44.487,91.051   c0.074,0.265-0.018,0.473-0.078,0.574c-0.108,0.179-0.282,0.3-0.49,0.344c-2.437,0.513-5.895,0.53-8.525-2.266   c-0.193-0.206-0.191-0.447-0.172-0.573c0.034-0.232,0.17-0.431,0.371-0.545l3.769-2.14c1.25,0.62,2.695,1.217,4.314,1.693   L44.487,91.051z M64.752,88.585c0.202,0.114,0.337,0.313,0.371,0.545c0.019,0.126,0.023,0.367-0.172,0.573   c-2.632,2.797-6.089,2.776-8.525,2.265c-0.208-0.043-0.381-0.165-0.489-0.343c-0.062-0.1-0.153-0.309-0.08-0.575l0.779-2.797   c1.501-0.425,2.981-1.02,4.442-1.755L64.752,88.585z M77.922,69.308c-1.494-9.184-5.31-15.467-5.5-15.777   c-0.333-0.539-1.019-0.734-1.586-0.446c-0.564,0.287-0.813,0.959-0.572,1.544c6.744,16.435-5.108,26.33-5.598,26.729   c-4.537,3.544-9.334,5.341-14.257,5.341c-8.436,0-14.5-5.336-14.545-5.376c-13.197-12.248-5.94-26.496-5.624-27.096   c0.298-0.567,0.104-1.27-0.444-1.604c-0.197-0.12-0.415-0.177-0.631-0.177c-0.384,0-0.761,0.182-0.996,0.518   c-2.994,4.276-4.661,12.151-5.436,16.9c-2.92-8.62-1.736-25.46,3.984-31.682c5.895-6.414,9.305-12.642,10.428-19.04   C38.513,11.339,43.383,6.68,50.174,6.68c7.885,0,11.948,7.124,13.031,13.224c1.563,8.807,9.389,17.317,9.652,17.592   C81.836,49.109,79.917,62.341,77.922,69.308z"/><path d="M48.202,28.82c0.22,0.329,0.586,0.531,0.981,0.54c0.009,0.001,0.02,0.001,0.03,0.001c0.384,0,0.748-0.182,0.977-0.492   l3.746-5.062c0.212-0.287,0.287-0.652,0.206-0.999c-0.081-0.347-0.311-0.641-0.628-0.804L49.97,20.18   c-0.336-0.172-0.732-0.179-1.074-0.018l-3.645,1.721c-0.319,0.151-0.558,0.433-0.653,0.774c-0.094,0.341-0.036,0.705,0.16,0.999   L48.202,28.82z M49.392,22.615l1.74,0.895l-1.866,2.523l-1.704-2.553L49.392,22.615z"/></g><text x="0" y="115" fill="#000000" font-size="5px" font-weight="bold" font-family="'Helvetica Neue', Helvetica, Arial-Unicode, Arial, Sans-serif">Created by Visual Glow</text><text x="0" y="120" fill="#000000" font-size="5px" font-weight="bold" font-family="'Helvetica Neue', Helvetica, Arial-Unicode, Arial, Sans-serif">from the Noun Project</text></svg>